<svg xmlns="http://www.w3.org/2000/svg" width="960" height="540" viewBox="0 0 960 540" role="img" aria-label="??? ????">
  <defs>
    <linearGradient id="sky" x1="0" y1="0" x2="1" y2="1"><stop stop-color="#365314"/><stop offset="1" stop-color="#a3e635"/></linearGradient>
    <linearGradient id="shade" x1="0" y1="0" x2="0" y2="1"><stop stop-color="rgba(255,255,255,.32)"/><stop offset="1" stop-color="rgba(15,23,42,.34)"/></linearGradient>
  </defs>
  <rect width="960" height="540" fill="url(#sky)"/>
  <circle cx="780" cy="110" r="82" fill="rgba(255,255,255,.32)"/>
  <path d="M0 388 C130 320 210 360 330 292 C455 222 540 335 650 275 C760 218 815 292 960 230 L960 540 L0 540Z" fill="rgba(255,255,255,.32)"/>
  <path d="M0 440 C145 365 250 410 365 345 C510 263 602 390 720 328 C830 270 875 345 960 320 L960 540 L0 540Z" fill="rgba(15,23,42,.22)"/>
  <path d="M92 388h70v-92h74v92h70V248h-70v-55h-74v55H92z" fill="rgba(255,255,255,.72)"/>
  <path d="M642 386h44V272h78v114h44V232h-166z" fill="rgba(255,255,255,.66)"/>
  <rect y="0" width="960" height="540" fill="url(#shade)"/>
  <text x="54" y="92" font-family="Arial, 'Microsoft YaHei', sans-serif" font-size="50" font-weight="800" fill="#fff">???</text>
  <text x="56" y="142" font-family="Arial, 'Microsoft YaHei', sans-serif" font-size="24" font-weight="600" fill="rgba(255,255,255,.86)">????</text>
  <text x="56" y="484" font-family="Arial, sans-serif" font-size="24" font-weight="700" fill="rgba(255,255,255,.82)">TravelMate Local Seed Image</text>
</svg>